PathFileType  4	(X/Y/Z) C:\Users\antoi\Documents\MyRepositories\mobilecap\ResultsAnalysis
DataRate	CameraRate	NumFrames	NumMarkers	Units	OrigDataRate	OrigDataStartFrame	OrigNumFrames
100.0	100.0	5	51	mm	100.0	36	141
Frame#	Time	r_knee			r_shank_antsup			r_ankle			r_calc			r_5meta			r_toe			L_knee			L_shank_antsup			L_ankle			L_calc			L_5meta			L_toe			r_sh2			r_sh3			r_sh4			L_sh2			L_sh3			r_thigh1			r_thigh2			r_thigh3			r_thigh4			r_thigh5			L_thigh1			L_thigh2			L_thigh3			L_thigh4			r.ASIS			r.PSIS			L.ASIS			L.PSIS			C7			R_Shoulder			L_Shoulder			R_Sternum			L_Sternum			R_humerus			R_elbow_med			R_elbow_lat			R_forearm			R_wrist_radius			R_wrist_ulna			L_humerus			L_elbow_med			L_elbow_lat			L_forearm			L_wrist_radius			L_wrist_ulna			R_HJC			L_HJC			R_HJC_reg			L_HJC_reg			
		X1	Y1	Z1	X2	Y2	Z2	X3	Y3	Z3	X4	Y4	Z4	X5	Y5	Z5	X6	Y6	Z6	X7	Y7	Z7	X8	Y8	Z8	X9	Y9	Z9	X10	Y10	Z10	X11	Y11	Z11	X12	Y12	Z12	X13	Y13	Z13	X14	Y14	Z14	X15	Y15	Z15	X16	Y16	Z16	X17	Y17	Z17	X18	Y18	Z18	X19	Y19	Z19	X20	Y20	Z20	X21	Y21	Z21	X22	Y22	Z22	X23	Y23	Z23	X24	Y24	Z24	X25	Y25	Z25	X26	Y26	Z26	X27	Y27	Z27	X28	Y28	Z28	X29	Y29	Z29	X30	Y30	Z30	X31	Y31	Z31	X32	Y32	Z32	X33	Y33	Z33	X34	Y34	Z34	X35	Y35	Z35	X36	Y36	Z36	X37	Y37	Z37	X38	Y38	Z38	X39	Y39	Z39	X40	Y40	Z40	X41	Y41	Z41	X42	Y42	Z42	X43	Y43	Z43	X44	Y44	Z44	X45	Y45	Z45	X46	Y46	Z46	X47	Y47	Z47	X48	Y48	Z48	X49	Y49	Z49	X50	Y50	Z50	X51	Y51	Z51	

36	0.35000000	153.65513	538.17521	-49.35980	174.62306	457.10639	-46.31060	117.90106	96.16019	-96.26454	60.88302	54.49861	-142.25376	268.88113	35.75238	-81.05708	298.62714	68.65144	-139.06262	386.96096	581.55692	-335.18687	362.61978	467.79655	-347.00582	149.05705	219.97296	-300.70002	73.30760	207.19882	-249.04026	285.93899	99.27089	-297.14309	245.39443	86.56670	-356.31337	171.08611	343.88157	-47.09612	101.81764	459.09970	-24.46256	87.21336	345.07459	-36.94557	290.18443	521.94153	-348.22552	227.18800	419.48541	-339.16319	244.68753	854.65987	3.59723	251.49662	746.95627	-20.92767	194.62044	715.08435	3.46420	128.92496	843.55087	7.13380	140.71727	728.75466	-7.40375	319.97185	899.86054	-344.38071	393.96664	782.10872	-352.27071	221.30333	834.65067	-351.98190	302.49293	720.94372	-361.07883	268.88010	1057.31748	-34.98345	74.07383	1094.13596	-121.37749	276.78177	1048.39149	-294.91127	76.60717	1085.84531	-226.01967	67.75459	1597.48042	-181.66185	141.28425	1554.23909	-8.57361	132.64275	1560.15317	-346.85877	222.27614	1528.92384	-154.20697	221.19101	1526.13864	-208.16062	173.06677	1292.41669	96.24841	131.43412	1188.49761	43.12184	165.51803	1205.19663	118.11463	268.32065	1080.53893	119.98422	332.13921	985.66982	101.93768	297.28507	976.70416	128.68017	120.68198	1297.70548	-433.63316	61.03707	1211.63026	-374.53049	93.30166	1212.93192	-439.26243	145.68816	1048.57635	-449.75757	176.13519	953.63961	-434.60253	142.47736	946.51352	-452.52827	183.62619	978.13055	-42.45806	193.43796	969.14064	-272.43094	194.58110	986.00165	-68.06221	198.73043	972.44198	-239.21158	
37	0.36000000	158.30987	538.41901	-49.51474	178.40929	457.06304	-46.20059	118.00891	96.28963	-96.09196	60.90395	54.68035	-142.16639	269.02315	35.68782	-80.79132	298.77357	68.58967	-138.77752	402.86851	582.49724	-333.43168	384.36326	467.07078	-345.93206	184.89794	207.35521	-301.50852	108.90999	190.25485	-250.63641	328.24192	95.52417	-295.99730	289.27221	80.36590	-355.66474	173.46309	343.84229	-46.89237	105.47903	460.01209	-25.00067	89.55586	346.16898	-37.37051	309.00673	517.22233	-348.23321	251.72939	411.50790	-339.39763	252.48774	853.96966	4.17260	258.26092	746.33629	-20.04806	200.61673	715.11157	3.51067	135.83032	844.46599	6.74158	147.00100	729.53864	-7.75875	333.21050	900.40637	-344.31748	407.58558	782.80315	-351.59318	234.67527	834.45997	-351.21863	316.45582	721.00633	-359.33129	278.73804	1056.71620	-33.95072	85.27008	1094.26214	-122.57069	289.35987	1048.49120	-294.12000	88.72115	1085.93464	-227.21146	79.87723	1597.47447	-181.22868	153.39418	1554.26835	-8.20496	144.74466	1559.89838	-346.43887	234.31491	1528.75311	-153.65266	233.28743	1525.89979	-207.63152	187.99350	1293.16963	96.93185	147.39654	1188.65582	44.18191	181.76267	1205.84811	118.96305	286.73039	1082.95956	119.92759	351.93373	989.32552	101.21658	317.41081	979.74301	128.20723	128.09932	1297.65303	-432.93864	67.62564	1212.70475	-373.44089	99.42929	1213.33328	-438.35426	148.95963	1048.01435	-448.80511	177.80855	952.48360	-433.55199	144.08128	945.92946	-451.26613	193.51887	977.74954	-42.71980	205.77774	969.26847	-272.59864	204.66097	986.02608	-67.74265	210.31420	972.39312	-239.04938	
38	0.37000000	163.20540	538.58403	-49.69261	182.44291	456.95885	-46.13215	118.23498	96.41915	-95.98174	60.92468	54.90160	-142.10804	269.17085	35.61567	-80.54488	298.90643	68.45395	-138.52807	418.14946	582.82129	-331.58919	405.85444	465.95683	-344.71526	221.62663	194.77082	-302.44973	145.54891	173.48384	-252.47061	370.72621	92.07331	-294.49888	333.58065	74.55165	-354.69492	176.02225	343.76836	-46.73738	109.39829	460.87077	-25.53967	92.11937	347.22919	-37.80515	327.72750	511.81093	-348.35469	276.60242	403.09141	-339.78719	260.46796	853.16778	4.65201	265.22395	745.61424	-19.23050	206.92641	715.00733	3.54798	143.16435	845.24690	6.19638	153.65009	730.20012	-8.17411	345.92928	900.33882	-344.38703	420.57031	782.81763	-350.82289	247.53287	833.89733	-350.40007	329.69865	720.58788	-357.57214	288.73626	1056.00029	-33.06248	96.59529	1094.32325	-123.69417	301.84441	1048.33492	-293.43778	100.89498	1085.91968	-228.34004	92.07324	1597.29984	-180.86999	165.44816	1554.08131	-7.86657	156.94930	1559.49992	-346.06437	246.39346	1528.40730	-153.09682	245.46831	1525.49415	-207.10950	202.81748	1293.72648	97.54740	163.33039	1188.64737	45.13720	197.93592	1206.32637	119.72369	304.97560	1085.20398	119.79108	371.61430	992.85086	100.43433	337.32799	982.64729	127.66186	135.64981	1297.58482	-432.30437	74.30291	1213.75875	-372.47417	105.68565	1213.71686	-437.55479	152.44308	1047.46513	-447.85447	179.75088	951.38904	-432.46557	145.96883	945.38114	-449.95934	203.53907	977.29130	-42.98883	218.02359	969.20059	-272.75779	214.81411	985.93371	-67.49208	221.85874	972.16599	-238.93397	
39	0.38000000	168.37522	538.66264	-49.90156	186.72321	456.78349	-46.12693	118.60446	96.54609	-95.95974	60.95781	55.15707	-142.08793	269.30358	35.53102	-80.33644	299.02479	68.24131	-138.32779	432.78380	582.53209	-329.65841	426.97926	464.56700	-343.33531	259.12506	182.48727	-303.45103	183.16846	157.15554	-254.50318	413.32867	88.99322	-292.68104	378.20575	69.22521	-353.43269	178.78322	343.65338	-46.65631	113.59377	461.66352	-26.07929	94.92258	348.24504	-38.25805	346.28198	505.83249	-348.41020	301.68985	394.42135	-340.20689	268.64174	852.25270	5.04989	272.43321	744.77719	-18.54883	213.59872	714.75374	3.54832	151.00392	845.84404	5.51024	160.67730	730.69807	-8.64228	358.18631	899.73050	-344.49666	432.99573	782.22693	-349.91443	259.92732	832.99432	-349.64274	342.30248	719.74574	-355.90003	298.95334	1055.16548	-32.34546	108.05253	1094.27526	-124.72058	314.25548	1047.95668	-292.85209	113.11115	1085.76665	-229.36586	104.34704	1596.95061	-180.58745	177.45615	1553.68550	-7.57105	169.23937	1558.97244	-345.74078	258.52724	1527.89250	-152.56601	257.74037	1524.93261	-206.61928	217.54041	1294.09241	98.08564	179.23449	1188.46432	45.99045	214.02783	1206.63450	120.39577	323.05404	1087.28810	119.56890	391.18481	996.23777	99.58874	357.07433	985.41072	127.05599	143.37824	1297.49660	-431.75334	81.12123	1214.79115	-371.61775	112.12841	1214.08759	-436.85101	156.16723	1046.94116	-446.90829	181.97792	950.38289	-431.34947	148.17929	944.87304	-448.62250	213.76227	976.73128	-43.26209	230.20564	968.94317	-272.91496	225.12277	985.72442	-67.32202	233.41246	971.77768	-238.84943	
40	0.39000000	173.84148	538.65322	-50.14599	191.24335	456.53004	-46.19872	119.12876	96.67844	-96.03747	61.00872	55.44386	-142.11226	269.40933	35.43142	-80.17656	299.13613	67.94833	-138.19337	446.72794	581.65650	-327.66691	447.58475	463.02919	-341.81210	297.26874	170.76319	-304.43000	221.68617	141.55430	-256.65467	455.99694	86.35071	-290.59824	423.01976	64.46004	-351.91829	181.76627	343.49068	-46.66611	118.07812	462.37934	-26.61286	97.98080	349.20860	-38.72626	364.54973	499.42552	-348.22110	326.82445	385.67224	-340.52377	277.00717	851.23199	5.39995	279.92317	743.82042	-18.05332	220.64582	714.34779	3.49202	159.32906	846.23958	4.74707	168.02822	731.02752	-9.13087	370.08564	898.67912	-344.53409	444.96025	781.10470	-348.84355	271.93203	831.81001	-349.04733	354.36131	718.53702	-354.38124	309.43420	1054.20360	-31.79926	119.63826	1094.07826	-125.64006	326.62858	1047.38615	-292.35713	125.35673	1085.44530	-230.26717	116.69485	1596.42509	-180.38069	189.43669	1553.09074	-7.33011	181.60368	1558.32587	-345.47355	270.72779	1527.21497	-152.08902	270.10353	1524.22868	-206.18403	232.16534	1294.27466	98.53841	195.09636	1188.10280	46.74359	230.02212	1206.77483	120.97837	340.95446	1089.23299	119.26750	410.62264	999.47330	98.68310	376.67953	988.03163	126.40845	151.33026	1297.37724	-431.30009	88.13550	1215.79093	-370.85705	118.80837	1214.44268	-436.22698	160.16639	1046.45440	-445.97200	184.50972	949.48703	-430.20813	150.74167	944.41363	-447.27340	224.23544	976.04342	-43.53935	242.36143	968.50243	-273.07729	235.64376	985.38936	-67.22925	245.01744	971.23374	-238.78832	
